<svg id="visual" viewBox="0 0 900 600" width="900" height="600" xmlns="http://www.w3.org/2000/svg" xmlns:xlink="http://www.w3.org/1999/xlink" version="1.1"><path d="M0 133L100 157L200 157L300 211L400 103L500 115L600 109L700 91L800 61L900 169L900 0L800 0L700 0L600 0L500 0L400 0L300 0L200 0L100 0L0 0Z" fill="#cecece"></path><path d="M0 169L100 181L200 205L300 235L400 145L500 139L600 151L700 133L800 97L900 217L900 167L800 59L700 89L600 107L500 113L400 101L300 209L200 155L100 155L0 131Z" fill="#c4c4c4"></path><path d="M0 193L100 247L200 265L300 295L400 163L500 163L600 181L700 163L800 151L900 277L900 215L800 95L700 131L600 149L500 137L400 143L300 233L200 203L100 179L0 167Z" fill="#b9b9b9"></path><path d="M0 247L100 271L200 289L300 355L400 205L500 217L600 229L700 211L800 199L900 319L900 275L800 149L700 161L600 179L500 161L400 161L300 293L200 263L100 245L0 191Z" fill="#afafaf"></path><path d="M0 331L100 331L200 367L300 391L400 295L500 295L600 289L700 241L800 277L900 361L900 317L800 197L700 209L600 227L500 215L400 203L300 353L200 287L100 269L0 245Z" fill="#a5a5a5"></path><path d="M0 391L100 409L200 397L300 439L400 361L500 337L600 355L700 289L800 331L900 421L900 359L800 275L700 239L600 287L500 293L400 293L300 389L200 365L100 329L0 329Z" fill="#9b9b9b"></path><path d="M0 469L100 517L200 463L300 481L400 433L500 415L600 409L700 367L800 409L900 487L900 419L800 329L700 287L600 353L500 335L400 359L300 437L200 395L100 407L0 389Z" fill="#919191"></path><path d="M0 523L100 535L200 481L300 529L400 475L500 451L600 445L700 415L800 445L900 535L900 485L800 407L700 365L600 407L500 413L400 431L300 479L200 461L100 515L0 467Z" fill="#878787"></path><path d="M0 601L100 601L200 601L300 601L400 601L500 601L600 601L700 601L800 601L900 601L900 533L800 443L700 413L600 443L500 449L400 473L300 527L200 479L100 533L0 521Z" fill="#7d7d7d"></path></svg>